<svg xmlns="http://www.w3.org/2000/svg" viewBox="0 0 950 222.16">
  <title>
    imagotype
  </title>
  <g id="Capa_2" data-name="Capa 2">
    <g id="Capa_1-2" data-name="Capa 1">
      <path d="M222.16,111.09a111.12,111.12,0,1,1-32.55-78.55A110.7,110.7,0,0,1,222.16,111.09Z" style="fill:#ed4300"/>
      <rect x="47.61" y="142.82" width="79.34" height="31.75" style="fill:#fff"/>
      <path d="M174.55,158.69a15.88,15.88,0,1,1-4.65-11.22A15.81,15.81,0,0,1,174.55,158.69Z" style="fill:#fff"/>
      <rect x="95.21" y="95.21" width="79.34" height="31.75" style="fill:#fff"/>
      <path d="M79.34,111.09A15.85,15.85,0,1,1,63.48,95.21,15.84,15.84,0,0,1,79.34,111.09Z" style="fill:#fff"/>
      <path d="M79.34,63.48A15.86,15.86,0,1,1,63.48,47.61,15.86,15.86,0,0,1,79.34,63.48Z" style="fill:#fff"/>
      <path d="M341.1,111c0,22-17.21,39.56-38.43,39.56-9.65,0-17.85-2.9-24.12-7.72v43.26H261.82V73.18h16.73v5.94c6.27-4.82,14.47-7.71,24.12-7.71C323.89,71.41,341.1,88.93,341.1,111Zm-16.73,0c0-13.5-10.13-25.08-24.11-25.08a25.27,25.27,0,0,0-21.71,11.25v27.66a25.28,25.28,0,0,0,21.71,11.26C314.24,136.05,324.37,124.47,324.37,111Z" style="fill:#191919"/>
      <path d="M366.29,36V150.6h-16.8V36Z" style="fill:#191919"/>
      <path d="M833.63,34.91V148.68H817.12v-6.09c-6.41,5.12-14.58,8-24.19,8-21.15,0-38.14-17.63-38.14-39.74,0-21.79,17-39.41,38.14-39.41,9.61,0,17.78,2.88,24.19,7.85V34.91Zm-16.51,89.57V97.4c-5.6-8-13.46-10.89-21.79-10.89-13.78,0-23.87,11-23.87,24.35,0,13.46,10.09,24.68,23.87,24.68C803.66,135.54,811.52,132.65,817.12,124.48Z" style="fill:#191919"/>
      <path d="M453.56,73.33v75.34H437.05v-5.93a38.79,38.79,0,0,1-24.21,7.86c-21.16,0-38.15-17.64-38.15-39.6s17-39.59,38.15-39.59c9.62,0,17.79,2.88,24.21,7.85V73.33Zm-16.51,51.3V97.38c-5.62-8-13.47-10.9-21.81-10.9-13.78,0-23.88,11.06-23.88,24.52s10.1,24.53,23.88,24.53C423.58,135.53,431.43,132.64,437.05,124.63Z" style="fill:#191919"/>
      <path d="M529,82.31,486.8,134.73H529v13.94H462v-7.85l43-53.7H463.24V73.33H529Z" style="fill:#191919"/>
      <path d="M661.44,105.55v43.12H644.93V105.55c0-13.3-7.06-19.07-17.8-19.07-7.37,0-14.43,2.72-20,10.25a41.16,41.16,0,0,1,.64,7.86v44.08H591.22V104.59c0-13.31-7.05-18.11-16.83-18.11-7.85,0-14.91,3.2-20.36,10.74v51.45H537.36V73.33H554v6.41c5.61-5.13,12.34-8.33,22.28-8.33,10.74,0,19.4,3.68,25,10.9,7.38-7.22,15.87-10.9,26.93-10.9C648,71.41,661.44,83.27,661.44,105.55Z" style="fill:#191919"/>
      <path d="M746,116H686.83c1.6,11.38,8.81,20,22.92,20,7.38,0,13-2.24,16-7h18.28c-4.81,13.62-18.12,21.64-34.47,21.64-23.72,0-39.76-17.15-39.76-39.6,0-22.28,15.87-39.59,38.8-39.59C733.64,71.41,749.19,90.48,746,116Zm-58.83-11.54h42.32c-1-12.34-9-18.92-20.68-18.92C696.29,85.51,689.07,93.85,687.15,104.43Z" style="fill:#191919"/>
      <path d="M862.73,73.33v75.34H846.22V73.33Z" style="fill:#191919"/>
      <path d="M950,73.33v75.34H933.49v-5.93a38.77,38.77,0,0,1-24.21,7.86c-21.16,0-38.15-17.64-38.15-39.6s17-39.59,38.15-39.59c9.62,0,17.8,2.88,24.21,7.85V73.33Zm-16.51,51.3V97.38c-5.61-8-13.47-10.9-21.8-10.9-13.79,0-23.89,11.06-23.89,24.52s10.1,24.53,23.89,24.53C920,135.53,927.88,132.64,933.49,124.63Z" style="fill:#191919"/>
      <path d="M843.9,52.82c0-5.93,4.65-10.26,10.58-10.26a10.26,10.26,0,1,1,0,20.51C848.55,63.07,843.9,58.75,843.9,52.82Z" style="fill:#0eccb5"/>
    </g>
  </g>
</svg>
